<?xml version="1.0" encoding="UTF-8" standalone="no"?>
<!-- Created with Inkscape (http://www.inkscape.org/) -->
<svg xmlns:dc="http://purl.org/dc/elements/1.1/" xmlns:cc="http://creativecommons.org/ns#" xmlns:rdf="http://www.w3.org/1999/02/22-rdf-syntax-ns#" xmlns:svg="http://www.w3.org/2000/svg" xmlns="http://www.w3.org/2000/svg" xmlns:sodipodi="http://sodipodi.sourceforge.net/DTD/sodipodi-0.dtd" xmlns:inkscape="http://www.inkscape.org/namespaces/inkscape" id="svg3904" sodipodi:version="0.32" inkscape:version="0.47 r22583" width="744.09448" height="1052.3622" version="1.0" sodipodi:docname="lvee_logo_.svg" inkscape:output_extension="org.inkscape.output.svg.inkscape" inkscape:export-filename="/src_install/lvee/2008/logo2008.png" inkscape:export-xdpi="303.60001" inkscape:export-ydpi="303.60001">
  <metadata id="metadata3909">
    <rdf:RDF>
      <cc:Work rdf:about="">
        <dc:format>image/svg+xml</dc:format>
        <dc:type rdf:resource="http://purl.org/dc/dcmitype/StillImage"/>
        <dc:title/>
      </cc:Work>
    </rdf:RDF>
  </metadata>
  <defs id="defs3907">
    <inkscape:perspective sodipodi:type="inkscape:persp3d" inkscape:vp_x="0 : 526.18109 : 1" inkscape:vp_y="0 : 1000 : 0" inkscape:vp_z="744.09448 : 526.18109 : 1" inkscape:persp3d-origin="372.04724 : 350.78739 : 1" id="perspective2954"/>
    <inkscape:perspective sodipodi:type="inkscape:persp3d" inkscape:vp_x="0 : 526.18109 : 1" inkscape:vp_y="0 : 1000 : 0" inkscape:vp_z="744.09448 : 526.18109 : 1" inkscape:persp3d-origin="372.04724 : 350.78739 : 1" id="perspective2464"/>
    <inkscape:perspective id="perspective3853" inkscape:persp3d-origin="372.04724 : 350.78739 : 1" inkscape:vp_z="744.09448 : 526.18109 : 1" inkscape:vp_y="0 : 1000 : 0" inkscape:vp_x="0 : 526.18109 : 1" sodipodi:type="inkscape:persp3d"/>
    <inkscape:perspective sodipodi:type="inkscape:persp3d" inkscape:vp_x="0 : 526.18109 : 1" inkscape:vp_y="0 : 1000 : 0" inkscape:vp_z="744.09448 : 526.18109 : 1" inkscape:persp3d-origin="372.04724 : 350.78739 : 1" id="perspective4938"/>
    <inkscape:perspective id="perspective4936" inkscape:persp3d-origin="372.04724 : 350.78739 : 1" inkscape:vp_z="744.09448 : 526.18109 : 1" inkscape:vp_y="0 : 1000 : 0" inkscape:vp_x="0 : 526.18109 : 1" sodipodi:type="inkscape:persp3d"/>
    <inkscape:perspective id="perspective2433" inkscape:persp3d-origin="372.04724 : 350.78739 : 1" inkscape:vp_z="744.09448 : 526.18109 : 1" inkscape:vp_y="0 : 1000 : 0" inkscape:vp_x="0 : 526.18109 : 1" sodipodi:type="inkscape:persp3d"/>
    <inkscape:perspective id="perspective2509" inkscape:persp3d-origin="372.04724 : 350.78739 : 1" inkscape:vp_z="744.09448 : 526.18109 : 1" inkscape:vp_y="0 : 1000 : 0" inkscape:vp_x="0 : 526.18109 : 1" sodipodi:type="inkscape:persp3d"/>
  </defs>
  <sodipodi:namedview inkscape:window-height="1032" inkscape:window-width="1920" inkscape:pageshadow="2" inkscape:pageopacity="0.0" guidetolerance="10.0" gridtolerance="10.0" objecttolerance="10.0" borderopacity="1.0" bordercolor="#666666" pagecolor="#ffffff" id="base" inkscape:zoom="0.68" inkscape:cx="356.20367" inkscape:cy="528.33828" inkscape:window-x="-4" inkscape:window-y="25" inkscape:current-layer="svg3904" width="744.09449px" height="1052.3622px" showgrid="false" inkscape:window-maximized="1"/>
  <g id="g2873">
    <g id="g3955">
      <g id="g8279" transform="matrix(0.76086957,0,0,0.76086837,88.478259,106.74671)">
        <path sodipodi:nodetypes="cssscccscccsssccccsccsssccssccssccccsssccssccssccssccsssccssccsssccsssssccsssccsssc" style="fill:#008000;fill-opacity:1" d="m 428.06613,445.25505 c 1.73004,-3.59919 7.59049,-6.36596 29.46107,-17.0908 15.55113,-7.62592 17.50399,-4.727 14.28124,-2.46509 -4.09087,2.8712 -3.65386,2.16105 -29.34289,15.19402 -9.31397,4.72531 -11.66369,5.71166 -14.39942,4.36187 z m 59.08173,2.80243 c 1.36947,-1.10743 8.54372,-5.69887 10.06189,-6.74968 5.00584,-2.41378 5.7633,-1.36214 4.35305,0.68118 -1.95207,2.82839 -9.62424,7.96076 -13.38768,10.39677 -6.45093,4.00927 -8.20069,1.02695 -1.02726,-4.32827 z m 76.21478,-2.89011 c -42.33788,-14.70172 2.24365,1.31283 -41.73259,-15.00752 -10.62211,-3.94205 -7.83292,-9.19912 9.42658,-2.64059 31.38599,11.92654 49.98659,17.35658 49.98659,20.029 0,1.38751 -2.98495,3.04125 -17.68058,-2.38089 z M 381.63929,424.86012 c 2.88238,-2.13535 35.27434,-19.4482 41.4786,-20.64797 5.5436,-0.82075 3.30291,0.99513 2.50608,2.30879 -2.16983,2.28524 -23.776,13.09001 -28.91816,15.46322 -12.16665,5.61515 -20.04231,7.96936 -15.06652,2.87596 z m 97.0223,-15.56391 c -46.40167,-21.5162 -66.54158,-33.3923 -56.62782,-33.3923 2.57771,0 71.7353,33.90332 74.78211,36.66065 1.26167,1.14181 2.29396,2.56198 2.29396,3.15595 0,2.3004 -5.06303,0.70974 -20.44825,-6.4243 z m 47.6723,2.6444 c -2.0046,-1.07947 -7.02994,-15.91617 -7.08149,-20.06098 -0.0413,-3.47049 2.79241,-3.6137 6.58935,9.299 2.48004,8.43414 3.09498,12.39416 0.49214,10.76198 z m -40.95897,-17.69749 c -3.66899,-6.63643 -6.41077,-19.28255 -7.08851,-23.6612 -0.80286,-5.18703 2.34687,-3.56919 3.09184,-2.27488 1.63679,2.84377 7.78719,22.01119 7.26419,26.53728 -0.37286,1.59953 -0.65694,1.06835 -1.38493,0.89228 -0.62753,-0.2019 -1.34385,-1.11403 -1.88259,-1.49348 z m -40.84951,-29.09368 c -3.65806,-9.2933 -8.56301,-23.11565 -8.56301,-26.66865 0,-3.83187 1.20595,-4.29427 3.75055,-0.41069 2.42161,3.69584 8.52798,21.63393 9.81309,28.35535 1.08732,5.68699 -1.92707,5.22954 -5.00063,-1.27601 z M 242.83548,311.50735 c -2.50563,-1.55668 1.26804,-2.66751 10.53565,-5.7784 52.45222,-17.60677 52.21958,-9.26176 10.51553,1.60556 -7.83559,2.04181 -20.35742,6.19812 -21.05118,4.17284 z m -37.3577,-25.3598 c 0.60361,-1.81086 16.89462,-6.01981 25.56207,-8.53545 43.68712,-12.67976 55.68828,-9.3981 7.0373,3.34372 -12.23067,3.20324 -34.45428,9.75201 -32.59937,5.19173 z m 99.24691,-9.39592 c -10.1138,-8.44985 -38.21359,-41.7916 -38.21359,-45.34227 0,-4.26357 10.3817,5.5993 30.35089,28.83404 16.67191,19.39826 20.20795,26.82242 7.8627,16.50823 z m 15.61403,-22.65471 c 3.65267,-16.74765 11.62669,-42.46496 13.03477,-45.75529 4.89404,-11.43613 4.18496,-0.24702 3.4233,2.70187 -8.58483,33.23727 -11.30754,43.74671 -13.78778,47.45839 -2.60674,3.90099 -4.17096,2.94751 -2.67029,-4.40497 z m -149.67876,-0.7799 c 0,-2.87499 51.76035,-15.46837 63.26175,-15.3917 12.57369,0.0838 -3.74405,5.28286 -41.95724,13.3681 -16.13983,3.41492 -21.30451,3.90546 -21.30451,2.0236 z m 117.42592,-33.04035 c 1.013,-6.33494 11.38966,-47.88539 17.07085,-67.37404 4.21653,-14.46434 7.89548,-19.41056 7.035,-9.99578 -0.71612,7.83541 -16.14855,70.72289 -20.54578,81.27945 -2.41784,5.80455 -4.52752,2.14049 -3.56007,-3.90963 z m -38.11583,-6.96426 c -19.21556,-26.37741 7.45169,12.51756 -22.37204,-32.63211 -12.01741,-18.19294 -13.89538,-25.84537 -7.29353,-20.76121 2.36887,1.8243 2.44002,1.46108 12.40007,17.89223 4.37701,7.2208 11.28762,17.84248 14.66612,23.46576 5.9397,9.8862 7.99494,13.59673 5.81893,13.59673 -0.57139,0 -0.90158,1.61452 -3.21955,-1.5614 z m -103.5939,-9.96834 c -12.47087,-2.45436 -3.5925,-4.06499 0.98113,-4.26361 22.72209,-0.97905 69.77574,-0.1331 74.10378,1.2677 9.07604,2.93754 2.07295,3.71565 -29.46454,3.54225 -19.15426,-0.10533 -33.03385,0.45671 -45.62037,-0.54634 z m 111.18883,-31.28891 c 0,-3.504 12.44555,-55.7622 16.815,-70.60534 2.92108,-9.922989 4.91126,-11.93628 4.91126,-4.968309 0,9.243569 -13.39063,67.470319 -17.21894,74.873459 -2.4449,4.72793 -4.50732,5.04832 -4.50732,0.70019 z" id="path3857"/>
        <path id="path2468" d="m 300.05719,422.06974 c 0,-2.3629 7.64978,-19.83207 9.49058,-21.67289 1.53317,-1.53316 2.55527,-1.62638 5.10328,-0.46542 3.44325,1.56884 11.47392,14.34152 9.96548,15.84995 -0.50543,0.50546 -4.81342,2.38485 -9.5733,4.17648 -8.79828,3.31166 -14.98604,4.18367 -14.98604,2.11188 z m 15.88106,-6.93465 c 2.17416,-1.58978 2.18673,-1.93131 0.21145,-5.75108 -1.15499,-2.2335 -2.89162,-4.06091 -3.85916,-4.06091 -1.6856,0 -4.56527,6.16637 -4.56527,9.77583 0,2.21322 5.20435,2.23614 8.21298,0.0362 z m 23.23514,2.22464 c -1.437,-3.7448 -0.7906,-14.08379 1.03692,-16.58493 1.53313,-2.09822 3.72648,-2.54996 14.22255,-2.92926 12.57198,-0.45434 15.30297,0.42133 13.77036,4.4153 -1.47536,3.84469 -21.96451,17.12044 -26.42288,17.12044 -1.00716,0 -2.18029,-0.90969 -2.60695,-2.02155 z m 14.81921,-8.36863 c 3.42849,-2.20005 6.00978,-4.64427 5.73621,-5.43157 -0.74857,-2.1543 -12.11361,-1.61162 -14.41347,0.68823 -2.13488,2.13489 -1.30607,8.74344 1.09656,8.74344 0.74091,0 4.15222,-1.80005 7.5807,-4.0001 z m -72.85248,3.14024 c -4.94181,-2.43548 -7.88885,-7.47867 -8.28053,-14.17028 -0.275,-4.69835 -0.16638,-4.81672 6.42662,-7.0041 3.68849,-1.22375 9.87089,-2.59691 13.73866,-3.0515 6.89179,-0.81 7.03232,-0.76179 7.03232,2.41208 0,4.08174 -7.00281,21.46351 -9.21192,22.86499 -2.44125,1.54877 -4.98963,1.27275 -9.70515,-1.05119 z m 11.12349,-11.10225 c 4.05766,-9.50812 2.91807,-10.77507 -6.90642,-7.67817 -4.02671,1.26932 -7.59058,3.00962 -7.91972,3.86733 -1.53933,4.01145 6.43263,12.77774 10.45785,11.49985 0.69151,-0.21953 2.65724,-3.67959 4.36829,-7.68901 z m 86.45935,-3.69359 c -0.27001,-0.87864 -0.81284,-4.72551 -1.20628,-8.54859 -0.39345,-3.8231 -1.95386,-11.12303 -3.4676,-16.22208 -3.8511,-12.97247 -3.32552,-13.78417 8.35329,-12.90091 12.09546,0.91478 14.78397,2.32789 14.78397,7.77069 0,5.50833 -3.40192,16.93311 -6.71534,22.55229 -4.35939,7.39304 -10.54525,11.26241 -11.74804,7.3486 z m 11.33085,-18.84661 c 2.54191,-9.05927 1.51151,-12.05539 -4.56384,-13.27047 -6.33472,-1.26693 -6.97245,0.43749 -4.35932,11.65107 1.27172,5.4573 2.58017,10.38163 2.90766,10.94294 1.26356,2.1657 3.96784,-2.02572 6.0155,-9.32354 z m -75.63634,2.84744 c -11.19566,-13.81166 -13.08226,-16.78752 -13.08226,-20.63545 0,-5.18975 12.70096,-5.04382 23.09296,0.26533 6.54935,3.34599 8.61461,7.93627 8.76019,19.47069 0.1064,8.42925 -2.21343,13.38405 -6.26635,13.38405 -1.47407,0 -6.24874,-4.76707 -12.50454,-12.48462 z m 13.80726,2.16482 c 1.95105,-3.64561 0.32983,-12.09898 -3.08086,-16.06417 -3.05144,-3.5475 -14.39251,-6.5477 -16.55952,-4.38069 -0.74956,0.74955 0.94163,3.75563 4.49804,7.99531 3.13458,3.73679 6.98891,8.66324 8.56519,10.9477 3.34221,4.84378 4.63109,5.13808 6.57715,1.50185 z m 25.93862,4.88823 c -3.17169,-3.54591 -7.42301,-10.5839 -11.50713,-19.04991 -4.32252,-8.96017 -2.92745,-10.43074 9.30901,-9.81282 13.11306,0.66218 15.02462,2.60401 14.25922,14.48504 -0.96096,14.91671 -6.09971,21.04246 -12.0611,14.37769 z m 6.9762,-13.28359 c 0.28284,-5.87738 -0.13771,-8.34071 -1.68881,-9.8918 -2.45665,-2.45666 -10.82356,-2.81781 -10.84046,-0.46792 -0.006,0.87864 1.86278,5.4543 4.15356,10.16815 5.35983,11.02925 7.85141,11.08624 8.37571,0.19157 z m -93.65905,4.67751 c -1.00458,-1.62544 7.37435,-19.39223 10.28455,-21.80751 3.19465,-2.65131 17.17237,12.64642 14.85023,16.25265 -2.8369,4.40566 -23.08006,8.87948 -25.13478,5.55486 z m 19.41077,-7.24869 c 0.89932,-2.34361 -3.67475,-6.83003 -6.96351,-6.83003 -2.38737,0 -5.33497,3.66908 -5.39022,6.70959 -0.0573,3.15607 11.14694,3.26531 12.35373,0.12044 z m 234.90505,-1.2006 c -14.23089,-3.48996 -13.86115,-7.85811 1.11259,-13.14429 11.30592,-3.99133 15.87517,-3.36451 18.95898,2.60086 1.3281,2.56911 2.5305,6.30731 2.67197,8.30711 0.25444,3.59666 0.17428,3.63858 -7.41086,3.87597 -4.21745,0.132 -11.11716,-0.60584 -15.33268,-1.63965 z m 15.97169,-3.79642 c 0,-6.32019 -4.5772,-8.33512 -12.58945,-5.54203 -5.40782,1.88517 -5.07955,4.45297 0.76781,6.00601 7.54389,2.00364 11.82164,1.83574 11.82164,-0.46398 z m -48.67524,-0.45164 c -6.11298,-3.83994 -14.15679,-12.34564 -17.24029,-18.2302 -1.64703,-3.14321 -1.54247,-3.73028 1.25178,-7.02909 1.67689,-1.97969 6.21495,-5.29938 10.08458,-7.37709 8.7973,-4.72353 10.45535,-3.7108 11.68248,7.13565 0.48462,4.28345 1.98815,11.31884 3.34119,15.63421 1.35304,4.31538 2.46749,9.14013 2.47657,10.72168 0.0232,4.04742 -4.29912,3.72867 -11.59631,-0.85516 z m 2.92847,-6.49343 c 0.7554,-1.84397 -3.27305,-19.23511 -4.73702,-20.45009 -2.6057,-2.16254 -10.20604,4.97132 -9.07913,8.52191 1.88115,5.92701 12.51398,15.10684 13.81615,11.92818 z m 64.91699,-2.59708 c 0,-7.63025 2.88117,-15.29515 5.74931,-15.29515 3.73649,0 9.2313,3.67688 14.58634,9.76054 2.91068,3.3067 5.0904,6.63285 4.84382,7.39145 -0.53825,1.65586 -12.17756,4.2793 -19.74791,4.45105 l -5.43156,0.12323 0,-6.43112 z m 15.13783,-0.35898 c 1.05319,-1.26901 0.45845,-2.70084 -2.43985,-5.8741 -3.14106,-3.439 -4.1711,-3.91505 -5.70921,-2.63854 -1.90371,1.57994 -2.58394,7.77941 -1.02469,9.33866 1.48281,1.48284 7.72398,0.92087 9.17375,-0.82602 z M 390.79999,352.2952 c -0.70495,-1.85417 -1.28173,-4.77438 -1.28173,-6.48934 0,-1.71496 -1.43777,-6.09846 -3.19504,-9.74112 -3.92334,-8.13271 -3.95882,-9.43607 -0.31951,-11.74079 5.03062,-3.18582 10.61318,-3.73683 13.06085,-1.28916 1.81641,1.81641 2.11416,4.08454 1.72839,13.1665 -0.49408,11.6319 -2.77409,18.32176 -6.48815,19.03702 -1.44568,0.27841 -2.67127,-0.75075 -3.50481,-2.94311 z m 6.11873,-20.45806 c -0.27723,-2.86204 -1.10039,-3.93758 -3.24691,-4.24244 -3.229,-0.45859 -3.32386,-0.11778 -1.71443,6.15946 0.63077,2.46018 1.5731,6.19839 2.09406,8.30712 l 0.9472,3.83405 1.14572,-5.11207 c 0.63016,-2.81164 0.97862,-6.8374 0.77436,-8.94612 z m -70.02322,16.60843 c -16.33438,-10.8304 -17.89221,-12.10456 -17.89221,-14.63429 0,-3.33643 3.68819,-5.15736 13.23196,-6.53289 13.99443,-2.017 18.71843,1.54669 18.71843,14.1208 0,7.29515 -1.80771,12.85558 -4.12192,12.67879 -0.89603,-0.0684 -5.36735,-2.60304 -9.93626,-5.63241 z m 10.20457,-7.34281 c -0.0108,-2.28445 -0.51584,-4.93685 -1.12242,-5.89423 -2.31677,-3.65671 -19.38282,-4.521 -19.25404,-0.97511 0.0649,1.78862 15.10966,10.86574 18.15951,10.95641 1.68871,0.0502 2.23173,-0.95086 2.21695,-4.08707 z m 27.42752,8.64083 c -6.20642,-6.58073 -15.90582,-20.42033 -15.90582,-22.69522 0,-4.76658 20.85415,-6.21618 25.31094,-1.7594 2.74525,2.74527 3.52369,16.50518 1.30937,23.14493 -2.26429,6.78962 -5.20701,7.14932 -10.71449,1.30969 z m 7.09846,-9.71582 c 0,-2.79272 -0.84818,-7.10767 -1.88485,-9.58875 -1.74037,-4.16532 -2.25384,-4.48054 -6.69896,-4.11252 -3.07086,0.25425 -4.94729,1.10319 -5.18195,2.3444 -0.46373,2.45294 11.053,18.11115 12.61214,17.14754 0.63449,-0.39214 1.15362,-2.99794 1.15362,-5.79067 z m 135.9035,7.21614 c -7.60203,-7.84865 -9.38128,-12.3916 -6.70098,-17.10955 2.94339,-5.18107 10.69102,-10.65173 15.40075,-10.87459 l 4.28548,-0.2028 0.9535,12.14116 c 0.52443,6.67764 0.63295,14.58537 0.24119,17.57273 -0.63392,4.83396 -1.08242,5.43157 -4.0762,5.43157 -2.39607,0 -5.30302,-2.00204 -10.10374,-6.95852 z m 8.78876,-6.57364 c -0.6207,-10.74954 -1.71572,-15.86222 -3.39732,-15.86222 -2.05604,0 -8.38137,5.80439 -8.38137,7.6911 0,3.78989 8.4821,15.68392 10.66024,14.94834 0.92332,-0.31182 1.34443,-2.86351 1.11845,-6.77722 z m -230.9583,5.1882 c -2.81163,-1.01293 -5.25583,-1.85034 -5.43157,-1.86093 -0.17572,-0.0106 -0.32081,-1.31323 -0.32242,-2.89478 -0.002,-1.9157 3.18679,-5.91577 9.5531,-11.98373 10.42942,-9.94063 14.05562,-11.79707 15.98855,-8.18535 1.89573,3.5422 -3.11386,20.4342 -7.11849,24.00314 -3.72518,3.31989 -5.62803,3.4583 -12.66917,0.92165 z m 11.4541,-7.37854 c 1.06033,-1.6183 2.2957,-4.78138 2.74524,-7.0291 1.11843,-5.59218 -1.23377,-5.27753 -8.44827,1.13014 -5.52346,4.90575 -5.65287,5.18177 -3.27027,6.9746 3.56877,2.68535 6.75961,2.30286 8.9733,-1.07564 z m 282.92602,1.96912 c -8.33765,-6.98225 -11.19396,-11.14593 -9.08973,-13.25018 1.79901,-1.79901 17.74617,-6.22487 22.4293,-6.22487 2.9451,0 3.96642,0.85919 5.56271,4.67966 1.20679,2.88825 1.65159,6.29848 1.16194,8.90849 -1.02155,5.44538 -6.52211,11.97637 -10.07083,11.95747 -1.51906,-0.008 -6.0161,-2.73986 -9.99339,-6.07057 z m 13.8146,-3.36499 c 2.82802,-5.93041 1.51642,-10.99799 -2.84652,-10.99799 -6.56639,0 -14.74139,2.79375 -14.33592,4.8992 0.46428,2.41077 10.67324,10.437 13.27536,10.437 1.01109,0 2.76928,-1.9522 3.90708,-4.33821 z m -52.85842,5.29672 c -4.11551,-4.50091 -6.83291,-10.76157 -7.64419,-17.61156 -0.65329,-5.51596 -0.31355,-6.85733 2.75607,-10.88181 7.92863,-10.39499 19.36446,-15.21468 22.44459,-9.45938 1.08479,2.02697 0.83635,4.42675 -1.09156,10.54363 -1.37282,4.35565 -3.50993,11.8889 -4.74915,16.74057 -2.05326,8.03882 -5.31772,13.54409 -8.03122,13.54409 -0.58037,0 -2.23843,-1.29399 -3.68454,-2.87554 z m 8.08337,-17.24982 c 1.6084,-6.15233 3.30649,-12.48005 3.77351,-14.0616 1.39366,-4.71964 -3.88383,-3.59957 -10.02333,2.1273 -4.68482,4.36996 -5.34605,5.66129 -5.22684,10.20767 0.0931,3.54957 1.24586,6.65928 3.62484,9.77829 1.9186,2.51541 3.81214,4.24968 4.20789,3.85394 0.39574,-0.39575 2.03551,-5.75326 3.64393,-11.9056 z m -85.59555,9.88783 c -4.61766,-4.05437 -12.32116,-17.71213 -12.32116,-21.84455 0,-5.03185 13.00057,-8.74401 16.32321,-4.6609 0.715,0.87863 1.62978,6.19838 2.03284,11.82165 0.40306,5.62328 0.89491,11.89332 1.09301,13.93342 0.50191,5.16887 -1.81746,5.41303 -7.1279,0.75038 z m -0.27392,-15.25474 c -0.79827,-7.05574 -1.16951,-7.82885 -3.5932,-7.48294 -2.14086,0.30556 -2.62252,1.14172 -2.31619,4.02087 0.35623,3.34798 5.43784,12.6926 6.3864,11.74401 0.22729,-0.22727 0.0127,-3.95414 -0.47701,-8.28194 z m 19.35829,0.73236 c -10.25278,-10.2528 -9.5049,-16.43065 3.00561,-24.82763 5.47765,-3.67656 9.28146,-5.36887 11.49039,-5.11207 3.09271,0.35956 3.28858,0.78904 3.08939,6.77398 -0.29167,8.76324 -6.79295,27.99408 -9.64157,28.51988 -1.25368,0.23139 -4.64202,-2.05236 -7.94382,-5.35416 z m 8.98322,-11.72727 c 3.51676,-10.60997 3.65609,-12.07746 1.14675,-12.07746 -2.94562,0 -12.14115,9.85911 -12.14115,13.0173 0,3.05314 4.86543,9.00421 6.827,8.35035 0.67278,-0.22427 2.54811,-4.40485 4.1674,-9.29019 z m -159.88317,10.64699 c -4.21744,-2.19503 -11.11872,-5.18746 -15.33617,-6.64983 -9.74361,-3.37855 -10.25597,-6.28947 -1.91703,-10.89149 4.66196,-2.57278 8.00853,-3.27276 17.67156,-3.69624 8.05911,-0.35318 12.40594,-0.0365 13.41916,0.9775 1.57007,1.57136 1.73853,17.03555 0.23712,21.76613 -1.15403,3.63599 -4.98181,3.2264 -14.07464,-1.50607 z m 9.3393,-9.63943 c 0.34614,-4.77558 0.0131,-5.56869 -2.78573,-6.63279 -4.43819,-1.68739 -18.69471,0.21956 -18.69471,2.50061 0,1.63113 16.70432,10.2057 19.17024,9.84036 1.28286,-0.19005 2.04709,-2.07835 2.3102,-5.70818 z m 28.05126,3.95778 c -3.1765,-2.5759 -8.28292,-5.60971 -11.34758,-6.74179 -7.23717,-2.67339 -7.89657,-5.71995 -1.68199,-7.77095 5.44736,-1.79778 17.92084,-0.76448 24.63469,2.04075 4.10095,1.71349 4.3277,2.11938 3.62008,6.47996 -0.76851,4.73576 -5.18165,10.67551 -7.93173,10.67551 -0.83489,0 -4.11695,-2.10756 -7.29347,-4.68348 z m 10.3085,-5.96233 c 0.52768,-2.72071 -5.09688,-4.94639 -11.20344,-4.43329 l -4.54523,0.38191 6.39008,3.45153 c 6.94169,3.74948 8.72559,3.86381 9.35859,0.59985 z m 191.50278,4.68174 c -1.71873,-1.71874 -0.74718,-7.62665 2.34735,-14.27397 l 3.17439,-6.81887 4.80072,2.89469 c 10.22024,6.16249 15.74273,10.66768 15.38071,12.54744 -0.70494,3.66051 -22.82943,8.52445 -25.70317,5.65071 z m 12.09937,-4.46235 c 2.71746,-0.81417 4.94084,-2.23717 4.94084,-3.16223 0,-1.423 -6.11752,-5.5816 -8.21082,-5.5816 -1.29216,0 -4.66558,7.75647 -3.90714,8.98366 0.96494,1.5613 1.19067,1.55376 7.17712,-0.23983 z m -63.25248,1.39395 c -7.33696,-5.77126 -10.74146,-17.92546 -6.27279,-22.39415 3.40428,-3.40427 17.76954,-9.71234 21.05627,-9.2462 5.2984,0.75144 4.50455,7.64862 -2.46763,21.4398 -3.35844,6.64312 -6.72788,12.26592 -7.48764,12.49512 -0.75975,0.22919 -2.93244,-0.80336 -4.82821,-2.29457 z m 7.41997,-14.92215 c 6.81871,-12.84122 6.23848,-14.21019 -3.42534,-8.08157 -9.06025,5.74584 -10.05164,9.35174 -4.49975,16.36642 1.82884,2.3107 2.88527,1.20631 7.92509,-8.28485 z m -61.2771,2.30235 c -1.40582,-0.58988 -3.8993,-2.51891 -5.54106,-4.28673 -3.56863,-3.84263 -2.77628,-6.04944 4.45016,-12.39435 13.37524,-11.74362 30.56312,-11.95462 19.26495,-0.23649 -2.49362,2.58633 -6.20532,7.5778 -8.24821,11.09218 -3.84972,6.62269 -5.59066,7.64442 -9.92584,5.82539 z m 12.0972,-18.99999 c -1.32569,-0.50006 -10.29147,5.11712 -12.59194,7.88901 -1.4065,1.69472 -1.42822,2.46081 -0.11468,4.04352 1.40424,1.69202 2.43034,1.05227 7.68684,-4.79256 3.33643,-3.70988 5.59534,-6.92287 5.01978,-7.13997 z m 68.58902,3.44275 c -7.50194,-8.28991 -9.99698,-13.46076 -7.29954,-15.12786 4.5699,-2.82435 29.81014,7.26669 30.51479,12.19982 0.45554,3.18919 -6.63765,9.11871 -12.25137,10.24146 -3.26806,0.65362 -4.49444,-0.16444 -10.96388,-7.31342 z m 13.81401,-1.05045 c 2.93007,-3.23768 1.95767,-4.52786 -5.26832,-6.99001 -10.52416,-3.58593 -11.82988,-2.38719 -5.38953,4.94798 4.47413,5.09575 7.38889,5.65421 10.65785,2.04203 z m -60.37892,2.795 c -3.54656,-5.03382 -7.922,-13.95427 -7.922,-16.15103 0,-6.87088 27.69658,-15.33531 35.86845,-10.96186 3.70091,1.98068 3.017,4.42067 -2.45349,8.75339 -2.70902,2.14558 -7.42235,7.22611 -10.47409,11.29004 -8.93335,11.89641 -10.94944,12.8454 -15.01887,7.06946 z m 12.39979,-12.95371 c 3.5841,-4.13716 6.51653,-8.23817 6.51653,-9.11333 0,-3.96586 -18.17739,2.58271 -18.96391,6.83193 -0.59421,3.21032 2.29456,9.80354 4.29533,9.80354 0.89954,0 4.56796,-3.38495 8.15205,-7.52214 z M 389.59596,247.87285 c -7.58719,-3.75553 -17.05072,-12.9073 -16.47407,-15.93137 0.58668,-3.07666 5.05761,-3.62672 9.75098,-1.19967 2.06345,1.06705 6.99277,2.18338 10.95404,2.48075 10.9666,0.82322 13.04334,3.77197 9.17572,13.02851 -2.23191,5.34172 -5.1727,5.69745 -13.40667,1.62178 z m 8.57519,-4.91816 c 0.26647,-1.38372 -2.04293,-2.73413 -7.97292,-4.66212 -4.59144,-1.49279 -8.34807,-2.24534 -8.34807,-1.67234 0,1.70651 11.89852,9.06187 14.00336,8.65651 1.06837,-0.20575 2.11129,-1.25067 2.31763,-2.32205 z m 19.60887,0.59392 c -5.81824,-7.39671 -4.61217,-11.81427 3.9127,-14.33135 3.07121,-0.90682 8.11495,-3.65157 11.20831,-6.09944 3.09336,-2.44786 6.24361,-4.24711 7.00057,-3.99831 4.47962,1.4724 -0.0179,12.67539 -9.14377,22.7767 -5.29209,5.85772 -9.27135,6.36438 -12.97781,1.6524 z m 9.52201,-4.0766 c 2.89692,-2.4245 7.43227,-9.17769 6.67331,-9.93664 -0.26271,-0.26273 -3.04043,1.22233 -6.17269,3.3001 -3.13226,2.07779 -6.22981,3.95867 -6.88345,4.17976 -1.70864,0.5779 0.15398,4.72721 2.10684,4.69331 0.9007,-0.0156 2.8249,-1.02207 4.27599,-2.23653 z m -71.69898,-17.06353 c -3.80812,-3.60157 -8.37454,-9.02373 -10.14761,-12.04923 -3.20964,-5.47686 -4.26459,-12.55875 -2.07257,-13.91349 0.63314,-0.3913 5.09022,0.94912 9.90461,2.97873 4.81441,2.0296 10.76633,4.08225 13.22651,4.56144 9.99695,1.9472 12.78014,3.33363 12.78014,6.36638 0,4.39178 -11.47772,18.60449 -15.02438,18.60449 -0.95855,0 -4.85856,-2.94675 -8.6667,-6.54832 z m 13.40866,-4.53098 c 1.47577,-1.87615 2.48864,-4.0328 2.25081,-4.79255 -0.49881,-1.59347 -15.45403,-6.90008 -19.83747,-7.03902 -2.9427,-0.0933 -2.94381,-0.0866 -0.63901,3.86559 3.0747,5.27239 10.1166,11.37717 13.12363,11.37717 1.33034,0 3.62625,-1.53503 5.10204,-3.41119 z m 29.45265,6.49995 c -12.08585,-6.87306 -15.97768,-13.43846 -9.43955,-15.92427 4.18257,-1.59021 28.6883,-4.81887 30.8463,-4.06402 2.30778,0.80722 1.91471,6.49219 -0.87344,12.63284 -5.06738,11.16047 -10.45113,13.08904 -20.53331,7.35545 z m 12.08389,-2.60461 c 2.89558,-1.11114 6.35619,-8.11558 4.78558,-9.6862 -1.71046,-1.71045 -20.98788,0.44302 -21.64095,2.4175 -0.50756,1.53453 5.22621,5.06554 11.15329,6.86847 1.76182,0.53593 3.30005,1.02384 3.41828,1.08425 0.11825,0.0604 1.14594,-0.24739 2.2838,-0.68402 z m 29.4516,-7.74515 c -2.10872,-1.12564 -6.0212,-3.76306 -8.69439,-5.86098 -6.57055,-5.15656 -5.94173,-7.99386 2.94332,-13.28059 3.866,-2.3003 10.05416,-6.8311 13.75147,-10.06841 9.00076,-7.88097 11.17662,-7.36674 11.14785,2.63453 -0.0314,10.90757 -8.67071,28.84774 -13.80798,28.67322 -0.82842,-0.0282 -3.23155,-0.97214 -5.34027,-2.09777 z m 9.32589,-9.67272 c 3.08182,-5.10943 5.89952,-13.63644 4.85218,-14.68379 -1.15951,-1.15951 -18.65112,11.17275 -18.65112,13.14975 0,2.3143 5.03377,5.6876 8.48723,5.6876 1.80033,0 3.70457,-1.48906 5.31171,-4.15356 z m -80.51665,-9.01434 c -14.00251,-11.41456 -13.08667,-15.82549 3.52207,-16.96331 13.69874,-0.93846 21.53269,0.55165 22.05721,4.19552 0.48528,3.37135 -2.75026,10.02683 -7.17214,14.75305 -4.97863,5.32128 -10.12491,4.76623 -18.40714,-1.98526 z m 16.82533,-2.40928 c 5.14504,-5.52255 3.64961,-6.99033 -7.93074,-7.78407 -5.79511,-0.39721 -10.80695,-0.4518 -11.13742,-0.12132 -2.03954,2.03954 9.44822,10.63496 14.2756,10.68138 1.20272,0.0116 3.35937,-1.23763 4.79256,-2.77599 z m 27.18748,-1.18157 c -5.99628,-2.96809 -10.7608,-8.11462 -9.70277,-10.48067 0.992,-2.21839 25.08841,-13.729 29.38097,-14.035 4.91706,-0.35051 5.40018,3.39405 1.7107,13.25961 -5.16484,13.81067 -10.52706,16.63258 -21.3889,11.25606 z m 12.66047,-5.80766 c 3.88222,-4.42059 6.53137,-10.85225 5.07133,-12.31229 -0.95676,-0.95676 -2.02465,-0.76808 -3.62331,0.64016 -1.24669,1.0982 -5.28603,3.50975 -8.9763,5.359 -3.69027,1.84924 -6.70957,4.1434 -6.70957,5.09813 0,0.95473 1.84216,2.62806 4.0937,3.71851 4.34672,2.10519 6.58095,1.55379 10.14415,-2.50351 z m -79.92084,-1.49782 c -0.36029,-0.58294 -1.29808,-5.04003 -2.08398,-9.90462 -1.6052,-9.93593 -0.65394,-21.72714 1.82976,-22.68021 2.24911,-0.86308 11.09018,3.29197 14.02478,6.59123 3.1386,3.52862 2.18584,8.33994 -3.75528,18.96367 -3.07013,5.48991 -5.30123,8.08986 -6.94216,8.08986 -1.32993,0 -2.71283,-0.47697 -3.07312,-1.05993 z m 8.25047,-13.51631 c 2.86179,-6.46956 2.24143,-9.39596 -2.22973,-10.51815 -4.57973,-1.14944 -5.48825,0.57475 -4.63893,8.80379 0.93644,9.07335 3.34726,9.67507 6.86866,1.71436 z m 36.34526,-2.21442 c -7.38861,-1.70654 -17.2532,-9.25951 -17.2532,-13.21018 0,-4.11024 2.30009,-5.16914 15.33618,-7.06041 20.08743,-2.91427 26.70925,-3.10267 27.59854,-0.78521 1.39172,3.62675 -0.63049,8.18796 -6.20283,13.99087 -8.28994,8.63297 -10.0017,9.25382 -19.47869,7.06493 z m 11.75196,-5.57368 c 3.31702,-2.32333 8.66324,-10.68414 7.54615,-11.80123 -0.44148,-0.44148 -4.38905,-0.13553 -8.77238,0.67989 -4.38333,0.81542 -10.70146,1.84729 -14.04027,2.29304 -6.46772,0.86348 -7.56963,2.6015 -3.80776,6.00595 5.21666,4.72103 14.41943,6.08273 19.07426,2.82235 z m 35.10019,-1.26365 c -4.32998,-4.62877 -7.86889,-9.40135 -7.86427,-10.60571 0.0194,-5.03431 9.86118,-15.23087 13.39289,-13.87562 2.46364,0.94538 7.01553,16.41705 7.38612,25.10502 0.26747,6.27069 0.0117,7.07026 -2.37111,7.41067 -1.90218,0.27175 -4.93689,-2.04073 -10.54363,-8.03436 z m 8.33227,-4.89673 c -0.41615,-3.03622 -1.36691,-7.12554 -2.11279,-9.08734 -1.27366,-3.34999 -1.5297,-3.45227 -4.20961,-1.68173 -4.46692,2.95118 -4.30205,7.02543 0.48412,11.9635 2.30608,2.37929 4.73335,4.32599 5.39392,4.32599 0.68077,0 0.87327,-2.3913 0.44436,-5.52042 z m -88.2136,-15.77159 c -2.50905,-0.71117 -2.49424,-1.17757 0.52074,-16.40948 1.72708,-8.72532 2.95482,-10.56062 5.59746,-8.36742 3.9269,3.25905 13.49183,16.95028 13.49183,19.31222 0,1.31144 -1.05074,2.94678 -2.33498,3.63408 -2.89087,1.54715 -14.0887,2.73376 -17.27505,1.8306 z m 13.92314,-6.9282 c 0.97657,-1.58012 -5.48693,-8.84227 -7.86984,-8.84227 -1.78416,0 -3.67464,6.91358 -2.43774,8.91493 1.07567,1.74047 9.2225,1.68304 10.30758,-0.0726 z m 35.86835,-1.88808 c -1.55169,-4.04363 5.34213,-24.84643 8.23384,-24.84643 1.99075,0 13.98331,18.41301 13.98331,21.46955 0,1.75089 -11.69073,5.3688 -17.34842,5.3688 -2.53795,0 -4.39608,-0.7602 -4.86873,-1.99192 z m 13.44251,-5.19233 c 2.08456,-1.88652 2.11926,-2.40183 0.38731,-5.75108 -1.04634,-2.02339 -2.73556,-3.67889 -3.75381,-3.67889 -1.98051,0 -5.75106,6.24265 -5.75106,9.52166 0,2.67117 6.13278,2.60949 9.11756,-0.0917 z m -34.67087,0.53982 c -2.92883,-3.0232 -6.77662,-7.95019 -8.55065,-10.94888 -3.09213,-5.22673 -3.13659,-5.58781 -1.07556,-8.73336 4.39363,-6.70552 14.77788,-8.399344 22.09616,-3.60421 3.40608,2.23175 3.29609,3.90106 -1.1873,18.02109 -3.59605,11.32541 -4.84643,11.90893 -11.28265,5.26536 z m 8.74956,-10.49608 c 1.72041,-7.049 1.68725,-7.65446 -0.50711,-9.25902 -3.3575,-2.45507 -7.38891,-2.12259 -11.26885,0.92937 -3.76326,2.96018 -3.42869,4.38555 2.90903,12.39338 4.59834,5.81009 6.69119,4.85094 8.86693,-4.06373 z" style="fill:#604000;fill-opacity:1"/>
      </g>
      <path style="fill:#008000;fill-opacity:1" d="m 184.37968,492.38216 c -4.85753,0.16496 -11.51591,5.7726 -16.89444,16.76597 -7.96695,16.28385 -15.50735,52.26862 -13.36137,63.72347 0.81461,4.34837 -0.99486,21.98473 -3.98272,39.18481 -6.58081,37.88345 -6.75688,47.33098 -1.02779,53.06006 3.60071,3.60068 7.72036,4.09516 22.61155,2.82644 29.82222,-2.54075 46.70057,-12.4197 46.70057,-27.30088 0,-7.6337 -0.69094,-8.74892 -4.56085,-7.13035 -12.21018,5.10681 -36.08272,11.75544 -42.07548,11.75544 -6.61822,0 -6.6807,-0.20969 -5.3317,-16.44477 0.75191,-9.04922 4.91007,-31.23585 9.25018,-49.3343 7.63234,-31.82698 11.78592,-51.86872 14.83884,-71.11077 1.72447,-10.86926 -1.30928,-16.16005 -6.16679,-15.99512 z m 85.05028,0.57815 c -1.98183,0.13273 -4.57579,1.36157 -8.02967,3.14763 -7.02609,3.63335 -11.45308,9.79985 -14.90307,20.68444 -1.94793,6.14557 5.10759,73.74084 9.69984,92.95148 2.07664,8.68726 6.35047,22.23998 9.50712,30.12733 4.77847,11.93975 5.16609,15.32722 2.50526,20.299 -2.52917,4.72583 -2.45978,6.825 0.19272,10.02104 1.84342,2.22117 4.93987,4.04695 6.8734,4.04695 5.1726,0 24.79563,-19.52325 24.79563,-24.66716 0,-2.42812 4.60188,-13.54251 10.21373,-24.73138 19.98178,-39.83959 34.49548,-80.85603 34.49548,-97.25539 0,-7.00446 0.51207,-6.86133 -9.95679,-3.21187 -8.36431,2.91581 -9.82764,6.04617 -12.46206,26.85123 -1.42346,11.24166 -10.10605,32.96014 -25.50223,63.59499 -12.40991,24.69282 -13.2477,24.1601 -19.39969,-13.29713 -3.15749,-19.22533 -3.94559,-36.52566 -3.01915,-66.35721 1.03077,-33.19223 0.93494,-42.60216 -5.01052,-42.20395 z m 176.26735,0.12847 c -11.33603,-0.0279 -26.41026,2.88195 -33.59614,7.32306 -20.42619,12.62409 -33.08324,31.62724 -36.87226,55.37262 -8.12971,50.94834 -11.12631,99.92252 -6.29525,102.90827 1.94253,1.20056 3.67335,3.44558 3.85424,4.94628 0.18099,1.50069 0.46127,3.46658 0.64236,4.36815 0.83597,4.1642 36.16836,-2.32008 52.16075,-9.57138 16.28366,-7.38336 29.80615,-18.20501 29.80615,-23.83205 0,-3.17007 -6.08824,-3.25649 -9.37866,-0.12848 -4.37145,4.15569 -35.28471,10.79187 -50.29787,10.79187 -14.37247,0 -14.4815,-0.007 -13.10442,-7.19458 0.76281,-3.98168 2.16167,-14.51017 3.0834,-23.38241 1.40113,-13.48694 2.70076,-16.60981 7.83697,-18.95002 6.18694,-2.81896 30.91498,-6.30743 48.43497,-6.80916 8.56542,-0.24529 9.4956,-0.99185 10.21374,-8.35086 1.27281,-13.04346 -4.39521,-15.81882 -25.11681,-12.26934 -9.55501,1.6367 -20.77727,5.49442 -24.98834,8.60781 -4.20678,3.11021 -8.2915,5.00562 -9.05746,4.23966 -2.43756,-2.43756 10.77604,-52.48284 15.35272,-58.13482 3.8386,-4.74045 7.3636,-5.39594 27.68631,-5.39594 12.79683,0 24.1173,-1.18586 25.18105,-2.63373 4.056,-5.52072 2.03126,-16.93565 -3.53305,-19.91359 -2.51188,-1.34432 -6.85965,-1.9787 -12.0124,-1.99136 z m 131.62239,0 c -11.33604,-0.0279 -26.41026,2.88195 -33.59614,7.32306 -20.42621,12.62409 -33.08324,31.62724 -36.87226,55.37262 -8.12972,50.94834 -11.12631,99.92252 -6.29526,102.90827 1.94254,1.20056 3.67335,3.44558 3.85424,4.94628 0.18099,1.50069 0.46127,3.46658 0.64237,4.36815 0.83594,4.1642 36.16836,-2.32008 52.16075,-9.57138 16.28365,-7.38336 29.80614,-18.20501 29.80614,-23.83205 0,-3.17007 -6.08824,-3.25649 -9.37865,-0.12848 -4.37146,4.15569 -35.28473,10.79187 -50.29787,10.79187 -14.37247,0 -14.48151,-0.007 -13.10442,-7.19458 0.76281,-3.98168 2.16166,-14.51017 3.08339,-23.38241 1.40113,-13.48694 2.70076,-16.60981 7.83695,-18.95002 6.18697,-2.81896 30.915,-6.30743 48.43499,-6.80916 8.56542,-0.24529 9.55984,-0.99185 10.27798,-8.35086 1.27281,-13.04346 -4.45945,-15.81882 -25.18105,-12.26934 -9.55501,1.6367 -20.77727,5.49442 -24.98834,8.60781 -4.20677,3.11021 -8.29149,5.00562 -9.05748,4.23966 -2.43753,-2.43756 10.77607,-52.48284 15.35274,-58.13482 3.8386,-4.74045 7.3636,-5.39594 27.68631,-5.39594 12.79683,0 24.1173,-1.18586 25.18105,-2.63373 4.056,-5.52072 2.03126,-16.93565 -3.53306,-19.91359 -2.51187,-1.34432 -6.85964,-1.9787 -12.01238,-1.99136 z" id="path2437"/>
    </g>
    <path style="fill:#000000" d="m 632.35681,756.17543 c -0.76535,-1.23834 0.12438,-12.47872 1.42514,-18.00436 0.66302,-2.81658 0.65633,-2.81909 -1.77253,-0.66662 -4.00031,3.54508 -3.65513,1.62071 0.97134,-5.41511 2.3968,-3.64501 4.96513,-8.09346 5.70739,-9.88544 1.37182,-3.31184 3.35642,-4.41669 3.31324,-1.84451 -0.0131,0.77748 -1.28531,5.71318 -2.82725,10.96819 -3.45016,11.75837 -3.56619,15.71452 -0.17015,5.80149 1.3683,-3.9941 3.08687,-7.46167 3.81903,-7.70572 0.73217,-0.24405 2.15386,1.14707 3.15933,3.09142 2.35631,4.5566 5.05722,4.06169 7.62785,-1.39771 2.21807,-4.71062 6.75182,-8.2306 9.32786,-7.24209 2.76993,1.06292 1.97347,3.74847 -2.35985,7.95692 -5.79503,5.62806 -2.81079,8.898 3.89035,4.26282 5.30159,-3.66714 6.21802,-4.06257 5.12391,-2.211 -1.90222,3.21916 -9.2242,8.81097 -11.53718,8.81097 -1.28211,0 -3.07475,-1.06172 -3.98366,-2.35935 -1.40261,-2.00252 -2.02709,-2.15891 -4.12898,-1.03402 -2.08602,1.11641 -2.89007,0.93675 -5.1003,-1.13964 -2.5068,-2.35502 -2.67317,-2.37195 -3.7288,-0.37963 -0.60769,1.14696 -2.19336,5.75446 -3.5237,10.23889 -2.45556,8.27742 -3.83172,10.42187 -5.23304,8.1545 z m 3.56616,-10.91267 c -0.37579,-0.37579 -0.64308,0.29216 -0.59397,1.4843 0.0543,1.31745 0.32224,1.58542 0.68324,0.68327 0.32668,-0.81637 0.28652,-1.79178 -0.0893,-2.16757 z m 24.19656,-16.41584 c 0,-0.63086 -0.75008,-0.50839 -1.69635,0.27695 -0.93299,0.77431 -1.69634,1.91675 -1.69634,2.53875 0,0.63084 0.75008,0.50838 1.69634,-0.27696 0.933,-0.77431 1.69635,-1.91674 1.69635,-2.53874 z m -302.55606,19.62845 c 1.88964,-5.95373 15.26073,-36.71141 16.4496,-37.83921 1.06721,-1.01239 1.18914,-0.67237 0.54661,1.52419 -2.07687,7.10001 -12.16086,33.62502 -13.65039,35.90611 -2.01812,3.09056 -4.28487,3.36759 -3.34582,0.40891 z M 70.204123,746.66833 c -0.406415,-1.05911 -0.186715,-5.31265 0.488223,-9.45233 0.67493,-4.13968 1.22101,-9.12075 1.213486,-11.06904 -0.0309,-8.01562 4.384525,-18.05648 6.866413,-15.61446 0.870222,0.85622 0.406643,5.18807 -1.620217,15.13996 -3.807304,18.69394 -3.814521,18.5878 1.199254,17.64722 2.22116,-0.41669 4.765681,-1.03668 5.654507,-1.37775 0.971881,-0.37295 1.616047,0.0777 1.616047,1.13046 0,2.58803 -2.302802,3.625 -11.014821,4.96008 -2.752737,0.42185 -3.847725,0.0826 -4.402892,-1.36414 z m 122.966957,-0.86367 c 0.0486,-1.39949 -0.72813,-4.73683 -1.726,-7.4163 -0.99787,-2.67947 -2.12988,-9.31737 -2.51556,-14.75089 -0.59741,-8.41644 -0.4155,-10.16486 1.22865,-11.80902 1.06145,-1.06144 2.33973,-1.9299 2.84063,-1.9299 0.50091,0 1.12719,5.97964 1.39171,13.28809 0.26454,7.30845 1.00339,14.21397 1.64188,15.34561 0.99561,1.76458 1.68169,0.99963 4.81869,-5.37249 2.01178,-4.08651 3.94992,-9.23029 4.307,-11.43062 0.62753,-3.86705 4.87069,-8.06277 4.85655,-4.80225 -0.021,4.82842 -8.42728,25.13803 -12.18682,29.44322 -2.40976,2.75952 -4.76223,2.47387 -4.65673,-0.56545 z m 199.1511,1.18744 c -0.7464,-0.74639 -1.33932,-3.41815 -1.31763,-5.93722 0.062,-7.19202 3.0086,-21.98015 4.97889,-24.98717 3.89372,-5.94255 15.90333,-8.46624 15.90333,-3.34191 0,1.8706 -0.63203,2.19854 -3.65407,1.89608 -7.42444,-0.74307 -8.08804,5.5e-4 -11.08109,12.41731 l -0.72421,3.00439 4.97958,-1.79065 c 5.26166,-1.89208 8.78344,-1.38654 8.78344,1.26084 0,1.11424 -1.87806,1.74755 -6.25976,2.11093 -3.44287,0.28551 -6.71333,0.98466 -7.26768,1.55366 -0.55437,0.56901 -1.33547,3.27166 -1.73578,6.00591 l -0.72786,4.97134 6.45958,-0.7592 c 6.16208,-0.72423 6.90394,-1.17978 16.10613,-9.89044 5.30557,-5.02217 10.83351,-9.67207 12.28428,-10.33307 4.80765,-2.19053 4.36684,0.38443 -0.88693,5.18085 -2.84853,2.60055 -5.89468,5.70217 -6.76923,6.89249 -1.46505,1.99404 -1.41125,2.06898 0.68436,0.95293 1.25093,-0.66621 3.23821,-2.27625 4.41614,-3.57785 2.87699,-3.17904 5.18385,-3.00372 5.18385,0.39395 0,4.72984 1.86955,4.26869 8.83376,-2.17892 3.70463,-3.42985 7.36858,-6.23609 8.14208,-6.23609 1.49675,0 1.09349,8.58644 -0.61079,13.00537 -1.24865,3.23753 6.70922,-4.37259 10.93887,-10.46084 l 3.33906,-4.80633 -5.14338,0 c -4.38944,0 -5.14338,-0.33155 -5.14338,-2.2618 0,-1.98425 0.75394,-2.26181 6.14374,-2.26181 5.15053,0 6.25981,-0.36565 6.86162,-2.26179 0.70931,-2.23483 2.82725,-3.18792 2.82725,-1.27228 0,0.54425 0.31807,2.57987 0.70682,4.52361 0.54089,2.70446 0.30769,3.53407 -0.99342,3.53407 -1.6185,0 -5.3679,11.56644 -5.3679,16.55935 0,2.79455 6.48587,-3.53254 8.47993,-8.27236 1.73439,-4.12259 6.53908,-7.71029 9.04031,-6.75048 2.76993,1.06292 1.97346,3.74847 -2.35986,7.95692 -4.00847,3.893 -4.31001,6.33918 -0.78139,6.33918 2.64946,0 9.03513,-5.21349 10.73838,-8.76718 1.94181,-4.05145 4.96261,-4.49382 8.43174,-1.23475 2.46057,2.31158 2.7249,3.2808 2.10982,7.73594 l -0.70316,5.09325 7.20117,-7.63358 c 3.96064,-4.19847 7.8561,-7.63358 8.65657,-7.63358 1.55341,0 1.25615,5.37174 -0.53194,9.61265 -0.70773,1.67856 0.1501,1.29887 3.32668,-1.47243 4.82747,-4.21155 6.2588,-4.18908 8.36505,0.13138 1.41879,2.91028 1.56803,2.95136 4.27617,1.17693 4.36173,-2.85791 4.25703,-1.22112 -0.19629,3.06867 l -4.02877,3.88085 -2.53405,-3.15338 c -3.03187,-3.77288 -5.01903,-3.31298 -9.16353,2.12073 -3.43383,4.502 -6.80652,5.26037 -5.84979,1.31538 2.5032,-10.32182 2.85275,-9.89981 -3.39321,-4.09678 -5.22226,4.85192 -10.01323,7.55454 -11.23182,6.33595 -0.28152,-0.28153 0.0112,-1.88783 0.65067,-3.56957 3.09239,-8.13356 -0.45865,-12.60862 -5.19889,-6.55173 -3.28497,4.19742 -9.43206,8.16486 -12.65051,8.16486 -1.2908,0 -3.08328,-1.05131 -3.98327,-2.33623 -1.62374,-2.31822 -1.66785,-2.30859 -5.72169,1.25072 -5.67544,4.98311 -7.92634,3.95075 -7.22818,-3.31517 l 0.52785,-5.49353 -3.69481,3.69482 c -2.03215,2.03215 -5.55432,5.11313 -7.82706,6.84664 -3.40551,2.5975 -4.3122,2.86747 -5.15543,1.535 -1.57178,-2.48369 -1.25273,-6.70586 0.5067,-6.70586 1.52712,0 3.20413,-5.0325 2.05872,-6.17791 -0.31712,-0.31712 -2.77742,1.45209 -5.46733,3.93157 -5.50802,5.07712 -8.43937,5.63718 -10.81085,2.06556 l -1.62181,-2.44257 -2.19156,2.28922 c -4.52859,4.73042 -10.66595,6.02419 -9.08953,1.91609 0.33389,-0.87008 0.24134,-1.56577 -0.20563,-1.54599 -1.41795,0.0628 -4.77083,2.99523 -4.77083,4.17264 0,1.25275 -11.51723,5.96951 -14.57617,5.96951 -1.06424,0 -2.54568,-0.61069 -3.29207,-1.35709 z m 84.59139,-18.14518 c 0,-0.63086 -0.75009,-0.50839 -1.69636,0.27695 -0.93299,0.77431 -1.69635,1.91675 -1.69635,2.53875 0,0.63084 0.75007,0.50838 1.69635,-0.27696 0.933,-0.77431 1.69636,-1.91674 1.69636,-2.53874 z m 70.34203,18.14518 c -0.74639,-0.74639 -1.33932,-3.41815 -1.31762,-5.93722 0.062,-7.19202 3.00861,-21.98015 4.97889,-24.98717 3.89371,-5.94255 15.90332,-8.46624 15.90332,-3.34191 0,1.8706 -0.63202,2.19854 -3.65406,1.89608 -7.42445,-0.74307 -8.08804,5.5e-4 -11.08109,12.41731 l -0.7242,3.00439 4.97956,-1.79065 c 5.26168,-1.89208 8.78344,-1.38654 8.78344,1.26084 0,1.11424 -1.87806,1.74755 -6.25975,2.11093 -3.44287,0.28551 -6.71332,0.98466 -7.26768,1.55366 -0.55438,0.56901 -1.33547,3.27166 -1.73579,6.00591 l -0.72786,4.97134 6.58192,-0.73901 c 6.91114,-0.77597 8.14516,-1.70092 18.74781,-14.05234 3.38969,-3.94877 6.12902,-4.89589 4.78387,-1.65401 -1.81053,4.36343 -3.0618,10.58835 -2.2814,11.34961 0.45532,0.44417 2.69859,-1.35529 4.98504,-3.99877 2.28646,-2.64347 4.46138,-4.80632 4.83317,-4.80632 0.37178,0 0.98131,1.52671 1.35451,3.3927 0.37319,1.86599 1.16551,3.3927 1.76071,3.3927 1.02417,0 3.67233,-3.48625 6.44644,-8.48661 1.8127,-3.2674 4.76262,-3.40946 7.98263,-0.38442 2.47188,2.32221 2.72369,3.2603 2.07652,7.73594 l -0.73648,5.09325 7.74635,-7.63358 c 4.2605,-4.19847 8.39976,-7.63358 9.19835,-7.63358 0.7986,0 1.1668,0.46143 0.81824,1.02542 -0.34857,0.564 0.29308,0.78306 1.42589,0.48684 1.1328,-0.29624 2.71704,0.25353 3.52053,1.22168 4.42154,5.32761 -7.74854,18.52806 -13.03608,14.13979 -0.87351,-0.72493 -1.58819,-2.32629 -1.58819,-3.55855 0,-2.00634 -0.4059,-1.88411 -3.88385,1.16959 -3.79781,3.3345 -8.21733,5.45624 -9.23838,4.43518 -0.28153,-0.28153 0.0112,-1.88783 0.65067,-3.56957 3.29073,-8.65529 -0.41356,-12.41507 -5.79709,-5.88392 -4.89551,5.93911 -7.18782,6.92042 -9.87911,4.22912 -2.16455,-2.16456 -2.22215,-2.15151 -5.18549,1.17433 -3.45825,3.88129 -6.43185,3.84482 -7.3608,-0.0903 -0.93956,-3.98003 -2.74505,-4.02319 -6.00944,-0.1437 -2.79325,3.3196 -12.39774,7.98211 -16.44266,7.98211 -1.09656,0 -2.60444,-0.61069 -3.35084,-1.35709 z m 77.06108,-10.23773 c 1.78863,-2.39795 2.01444,-3.42064 0.983,-4.45209 -1.70712,-1.70711 -7.02348,2.94718 -7.02348,6.14885 0,3.02284 3.1881,2.12732 6.04048,-1.69676 z m -517.96673,5.65758 c 0.33939,-1.39948 0.9864,-4.05466 1.4378,-5.9004 l 0.82073,-3.35585 -4.91148,4.20403 c -5.743901,4.91658 -8.580149,5.29333 -10.364631,1.3768 -1.319807,-2.89667 -3.640958,-3.70649 -4.879526,-1.70244 -0.382351,0.61865 -1.723166,1.67499 -2.979602,2.34742 -2.013971,1.07783 -2.151389,0.97814 -1.160729,-0.84211 1.896326,-3.48437 8.962482,-9.71165 10.171806,-8.96425 0.627889,0.38806 1.475644,2.22643 1.88392,4.08529 0.408268,1.85886 1.288832,3.37973 1.956817,3.37973 0.667975,0 3.904965,-2.54452 7.193305,-5.65451 3.28835,-3.10997 6.57385,-5.65449 7.30112,-5.65449 1.41797,0 1.03129,5.58946 -0.66501,9.61265 -0.70772,1.67856 0.15011,1.29887 3.32669,-1.47243 4.82468,-4.20912 6.25903,-4.18852 8.3596,0.12002 1.74024,3.56943 3.67384,2.80282 8.14801,-3.23052 2.58018,-3.4793 5.44291,-5.61829 6.33089,-4.73033 0.19394,0.19395 -0.36547,2.36877 -1.24314,4.83294 -3.31759,9.31455 -1.57923,10.97625 4.09544,3.91487 3.94662,-4.91105 5.50885,-5.62912 5.53583,-2.54453 0.009,1.0885 0.49163,2.7291 1.07134,3.6458 1.77647,2.80914 6.55991,-2.51837 5.95594,-6.63339 -0.58928,-4.0151 1.44438,-5.54037 3.1465,-2.35993 1.23728,2.31189 1.32009,2.29434 5.18515,-1.09923 4.48865,-3.94108 5.5797,-4.20219 6.58731,-1.57647 0.65456,1.70577 -3.84871,9.72271 -6.31906,11.24948 -1.51868,0.93858 -1.08878,2.41296 0.92938,3.1874 1.12583,0.43203 3.61355,-0.48838 6.24044,-2.3088 6.33815,-4.39235 6.57145,-2.51397 0.28404,2.28684 -5.52155,4.21601 -8.19406,4.95026 -10.31137,2.83295 -0.89431,-0.89431 -2.05151,-0.70196 -4.18433,0.69552 -3.55268,2.32781 -3.84692,1.07769 -0.56786,-2.41271 3.92168,-4.17443 1.35728,-5.50004 -3.08855,-1.59654 -3.20137,2.81085 -4.3258,3.22541 -6.12975,2.25996 -1.21505,-0.65028 -2.21155,-1.80056 -2.21443,-2.55615 -0.003,-0.75562 -1.55538,0.28009 -3.45002,2.30158 -3.56429,3.80294 -6.48303,4.71788 -7.2153,2.2618 -1.72848,-5.79746 -1.47351,-5.65779 -5.24716,-2.87407 l -3.51287,2.59134 -2.51898,-3.15338 c -3.01478,-3.77402 -5.00404,-3.31288 -9.14846,2.12073 -3.43385,4.502 -6.80654,5.26037 -5.8498,1.31538 z m 57.93442,-15.29647 c -0.99119,-0.9912 -5.1574,3.31776 -5.11824,5.29365 0.0255,1.28674 0.85252,0.87494 2.88524,-1.43667 1.56724,-1.78227 2.57209,-3.5179 2.233,-3.85698 z m 110.5862,16.09075 c -0.36939,-0.96264 -0.39746,-3.79435 -0.0623,-6.29267 l 0.60927,-4.54242 -3.91475,4.03086 c -4.48213,4.61511 -7.35275,5.08636 -9.67539,1.58829 l -1.62181,-2.44257 -2.19156,2.28922 c -4.58693,4.79135 -10.66194,6.0137 -9.05328,1.8216 0.35383,-0.92206 0.26129,-1.49495 -0.20563,-1.27309 -0.46691,0.22184 -3.2453,1.62786 -6.17417,3.12449 -4.49188,2.29528 -5.77496,2.5162 -8.19903,1.41172 -1.58061,-0.72017 -2.87381,-2.08366 -2.87381,-3.02999 0,-1.94024 -1.76504,-2.30839 -2.82726,-0.5897 -1.2076,1.95395 -4.74551,1.2328 -6.43499,-1.31168 l -1.62182,-2.44257 -2.19154,2.28922 c -4.52861,4.73042 -10.66597,6.02419 -9.08955,1.91609 0.74096,-1.93089 -0.64562,-2.06774 -2.46963,-0.24373 -0.73604,0.73604 -1.62047,1.056 -1.96542,0.71105 -0.81266,-0.81264 15.06847,-15.55004 18.40596,-17.08036 4.72889,-2.16835 4.23831,0.45393 -0.97539,5.21376 -2.84853,2.60055 -5.89467,5.70217 -6.76923,6.89249 -1.46505,1.99404 -1.41124,2.06898 0.68436,0.95293 1.25095,-0.66621 3.23822,-2.27625 4.41616,-3.57785 2.83187,-3.12917 5.18384,-3.00568 5.18384,0.27221 0,1.45133 0.30787,2.94663 0.68413,3.32291 0.37628,0.37627 4.31669,-2.08344 8.75646,-5.46602 7.48422,-5.70208 10.94082,-7.38371 10.89833,-5.30198 -0.0304,1.48563 -1.5653,3.14412 -5.97544,6.4563 -2.97285,2.23274 -4.1922,3.95267 -3.95816,5.58318 0.62689,4.36724 3.93555,3.09054 15.6769,-6.04919 6.42987,-5.00515 12.35206,-9.10027 13.16044,-9.10027 2.58621,0 1.58385,2.05969 -2.52901,5.19673 -2.19934,1.67751 -5.07491,4.56129 -6.39017,6.40838 -2.21321,3.10818 -2.23031,3.27217 -0.22942,2.20133 1.18906,-0.63637 3.1257,-2.22198 4.30363,-3.52358 2.87699,-3.17904 5.18385,-3.00372 5.18385,0.39395 0,1.51828 0.42827,3.02519 0.95171,3.34871 1.06354,0.65729 6.41081,-4.73962 10.25487,-10.35009 l 2.51825,-3.67543 -5.16606,0 c -4.41213,0 -5.16607,-0.33009 -5.16607,-2.2618 0,-1.98425 0.75394,-2.26181 6.14375,-2.26181 5.15053,0 6.25981,-0.36565 6.86162,-2.26179 0.70931,-2.23483 2.82725,-3.18792 2.82725,-1.27228 0,0.54425 0.31807,2.57987 0.70681,4.52361 0.54089,2.70446 0.3077,3.53407 -0.99342,3.53407 -1.14807,0 -2.29577,2.3709 -3.53406,7.30055 -2.91075,11.58773 -2.56862,12.00771 4.27566,5.24845 3.36022,-3.31849 6.62896,-5.71257 7.26385,-5.32018 0.63489,0.39238 1.48839,2.2343 1.89668,4.09316 0.40825,1.85886 1.36364,3.37973 2.12305,3.37973 0.75942,0 4.23564,-2.54452 7.72495,-5.65451 5.61424,-5.00388 10.07705,-7.49026 8.30873,-4.62907 -0.34856,0.564 0.2931,0.78306 1.42589,0.48684 1.1328,-0.29624 2.71705,0.25353 3.52054,1.22168 4.37721,5.2742 -7.73812,18.53672 -12.9682,14.19614 -0.83615,-0.69396 -1.67806,-2.29338 -1.87091,-3.5543 -0.34979,-2.28725 -0.35757,-2.28707 -3.35624,0.0821 -3.86869,3.0566 -6.19889,3.0062 -7.85132,-0.16982 -0.72813,-1.39949 -1.50659,-2.75378 -1.72993,-3.00952 -0.22332,-0.25576 -2.91744,1.65264 -5.98693,4.24087 -6.043,5.09553 -7.7079,5.65823 -8.74498,2.95562 z m 38.44833,-6.45186 c 1.78863,-2.39795 2.01445,-3.42064 0.98301,-4.45209 -1.70712,-1.70711 -7.02349,2.94718 -7.02349,6.14885 0,3.02284 3.18809,2.12732 6.04048,-1.69676 z m 11.29493,5.65758 c 0.33939,-1.39948 0.98013,-4.02958 1.42383,-5.84467 l 0.80674,-3.30016 -4.6935,3.7718 c -2.58141,2.07449 -4.91956,3.54574 -5.19587,3.26943 -0.81628,-0.8163 12.38692,-14.57718 13.98642,-14.57718 1.56245,0 1.27088,5.35778 -0.52309,9.61265 -0.70773,1.67856 0.15011,1.29887 3.3267,-1.47243 4.82746,-4.21155 6.25878,-4.18908 8.36504,0.13138 1.41879,2.91028 1.56803,2.95136 4.27617,1.17693 4.36172,-2.85791 4.25702,-1.22112 -0.19628,3.06867 l -4.02879,3.88085 -2.53405,-3.15338 c -3.03186,-3.77288 -5.01902,-3.31298 -9.16352,2.12073 -3.43383,4.502 -6.80653,5.26037 -5.8498,1.31538 z M 92.407239,719.57533 c 0,-1.57373 4.102455,-5.15318 5.906139,-5.15318 1.52135,0 0.955805,3.15461 -0.897869,5.00828 -2.225261,2.22527 -5.00827,2.3058 -5.00827,0.1449 z m 197.907671,0 c 0,-1.57373 4.10245,-5.15318 5.90614,-5.15318 1.52134,0 0.9558,3.15461 -0.89787,5.00828 -2.22526,2.22527 -5.00827,2.3058 -5.00827,0.1449 z" id="path2513"/>
  </g>
</svg>